<?xml version="1.0" encoding="UTF-8" standalone="no"?>
<!DOCTYPE svg PUBLIC "-//W3C//DTD SVG 1.1//EN"
 "http://www.w3.org/Graphics/SVG/1.1/DTD/svg11.dtd">
<!-- Generated by graphviz version 2.43.0 (0)
 -->
<!-- Title: structs Pages: 1 -->
<svg width="125pt" height="97pt"
 viewBox="0.00 0.00 125.00 97.00" xmlns="http://www.w3.org/2000/svg" xmlns:xlink="http://www.w3.org/1999/xlink">
<g id="graph0" class="graph" transform="scale(1 1) rotate(0) translate(4 93)">
<title>structs</title>
<polygon fill="white" stroke="transparent" points="-4,4 -4,-93 121,-93 121,4 -4,4"/>
<!-- table -->
<g id="node1" class="node">
<title>table</title>
<polygon fill="none" stroke="black" points="0,-0.5 0,-88.5 117,-88.5 117,-0.5 0,-0.5"/>
<polygon fill="none" stroke="black" points="8.5,-64.5 8.5,-84.5 42.5,-84.5 42.5,-64.5 8.5,-64.5"/>
<text text-anchor="start" x="11.5" y="-70.3" font-family="Times,serif" font-size="14.00">0001</text>
<polygon fill="none" stroke="black" points="42.5,-64.5 42.5,-84.5 82.5,-84.5 82.5,-64.5 42.5,-64.5"/>
<text text-anchor="start" x="46.56" y="-70.3" font-family="Times,serif" font-size="14.00">Linus</text>
<polygon fill="none" stroke="black" points="82.5,-64.5 82.5,-84.5 109.5,-84.5 109.5,-64.5 82.5,-64.5"/>
<text text-anchor="start" x="89" y="-70.3" font-family="Times,serif" font-size="14.00">99</text>
<polygon fill="none" stroke="black" points="8.5,-44.5 8.5,-64.5 42.5,-64.5 42.5,-44.5 8.5,-44.5"/>
<text text-anchor="start" x="11.5" y="-50.3" font-family="Times,serif" font-size="14.00">0002</text>
<polygon fill="none" stroke="black" points="42.5,-44.5 42.5,-64.5 82.5,-64.5 82.5,-44.5 42.5,-44.5"/>
<text text-anchor="start" x="45.01" y="-50.3" font-family="Times,serif" font-size="14.00">Aaron</text>
<polygon fill="none" stroke="black" points="82.5,-44.5 82.5,-64.5 109.5,-64.5 109.5,-44.5 82.5,-44.5"/>
<text text-anchor="start" x="85.5" y="-50.3" font-family="Times,serif" font-size="14.00">199</text>
<polygon fill="skyblue" stroke="transparent" points="8.5,-24.5 8.5,-44.5 42.5,-44.5 42.5,-24.5 8.5,-24.5"/>
<polygon fill="none" stroke="black" points="8.5,-24.5 8.5,-44.5 42.5,-44.5 42.5,-24.5 8.5,-24.5"/>
<text text-anchor="start" x="11.5" y="-30.3" font-family="Times,serif" font-size="14.00">0001</text>
<polygon fill="yellow" stroke="transparent" points="42.5,-24.5 42.5,-44.5 82.5,-44.5 82.5,-24.5 42.5,-24.5"/>
<polygon fill="none" stroke="black" points="42.5,-24.5 42.5,-44.5 82.5,-44.5 82.5,-24.5 42.5,-24.5"/>
<text text-anchor="start" x="47.71" y="-30.3" font-family="Times,serif" font-size="14.00">RMS</text>
<polygon fill="skyblue" stroke="transparent" points="82.5,-24.5 82.5,-44.5 109.5,-44.5 109.5,-24.5 82.5,-24.5"/>
<polygon fill="none" stroke="black" points="82.5,-24.5 82.5,-44.5 109.5,-44.5 109.5,-24.5 82.5,-24.5"/>
<text text-anchor="start" x="89" y="-30.3" font-family="Times,serif" font-size="14.00">98</text>
<polygon fill="skyblue" stroke="transparent" points="8.5,-4.5 8.5,-24.5 42.5,-24.5 42.5,-4.5 8.5,-4.5"/>
<polygon fill="none" stroke="black" points="8.5,-4.5 8.5,-24.5 42.5,-24.5 42.5,-4.5 8.5,-4.5"/>
<text text-anchor="start" x="11.5" y="-10.3" font-family="Times,serif" font-size="14.00">0004</text>
<polygon fill="yellow" stroke="transparent" points="42.5,-4.5 42.5,-24.5 82.5,-24.5 82.5,-4.5 42.5,-4.5"/>
<polygon fill="none" stroke="black" points="42.5,-4.5 42.5,-24.5 82.5,-24.5 82.5,-4.5 42.5,-4.5"/>
<text text-anchor="start" x="47.71" y="-10.3" font-family="Times,serif" font-size="14.00">RMS</text>
<polygon fill="skyblue" stroke="transparent" points="82.5,-4.5 82.5,-24.5 109.5,-24.5 109.5,-4.5 82.5,-4.5"/>
<polygon fill="none" stroke="black" points="82.5,-4.5 82.5,-24.5 109.5,-24.5 109.5,-4.5 82.5,-4.5"/>
<text text-anchor="start" x="89" y="-10.3" font-family="Times,serif" font-size="14.00">97</text>
</g>
</g>
</svg>
