<?xml version="1.0" encoding="UTF-8" standalone="no"?>
<!DOCTYPE svg PUBLIC "-//W3C//DTD SVG 1.1//EN"
 "http://www.w3.org/Graphics/SVG/1.1/DTD/svg11.dtd">
<!-- Generated by graphviz version 2.43.0 (0)
 -->
<!-- Title: java_exception_inheritance Pages: 1 -->
<svg width="569pt" height="276pt"
 viewBox="0.00 0.00 569.04 276.00" xmlns="http://www.w3.org/2000/svg" xmlns:xlink="http://www.w3.org/1999/xlink">
<g id="graph0" class="graph" transform="scale(1 1) rotate(0) translate(4 272)">
<title>java_exception_inheritance</title>
<polygon fill="white" stroke="transparent" points="-4,4 -4,-272 565.04,-272 565.04,4 -4,4"/>
<!-- Throwable -->
<g id="node1" class="node">
<title>Throwable</title>
<ellipse fill="none" stroke="black" cx="182.65" cy="-250" rx="48.33" ry="18"/>
<text text-anchor="middle" x="182.65" y="-245.8" font-family="Times,serif" font-size="14.00">Throwable</text>
</g>
<!-- Error -->
<g id="node2" class="node">
<title>Error</title>
<ellipse fill="none" stroke="black" cx="136.65" cy="-177" rx="28.53" ry="18"/>
<text text-anchor="middle" x="136.65" y="-172.8" font-family="Times,serif" font-size="14.00">Error</text>
</g>
<!-- Throwable&#45;&gt;Error -->
<g id="edge1" class="edge">
<title>Throwable&#45;&gt;Error</title>
<path fill="none" stroke="black" d="M171.75,-232.17C166.05,-223.38 158.97,-212.46 152.67,-202.72"/>
<polygon fill="black" stroke="black" points="155.53,-200.71 147.16,-194.22 149.66,-204.51 155.53,-200.71"/>
</g>
<!-- Exception -->
<g id="node3" class="node">
<title>Exception</title>
<ellipse fill="none" stroke="black" cx="277.65" cy="-177" rx="45.92" ry="18"/>
<text text-anchor="middle" x="277.65" y="-172.8" font-family="Times,serif" font-size="14.00">Exception</text>
</g>
<!-- Throwable&#45;&gt;Exception -->
<g id="edge2" class="edge">
<title>Throwable&#45;&gt;Exception</title>
<path fill="none" stroke="black" d="M203.26,-233.59C216.58,-223.64 234.11,-210.54 248.8,-199.56"/>
<polygon fill="black" stroke="black" points="251.16,-202.17 257.08,-193.38 246.97,-196.56 251.16,-202.17"/>
</g>
<!-- Virtual Machine Error -->
<g id="node4" class="node">
<title>Virtual Machine Error</title>
<ellipse fill="none" stroke="black" cx="88.65" cy="-91" rx="88.8" ry="18"/>
<text text-anchor="middle" x="88.65" y="-86.8" font-family="Times,serif" font-size="14.00">Virtual Machine Error</text>
</g>
<!-- Error&#45;&gt;Virtual Machine Error -->
<g id="edge3" class="edge">
<title>Error&#45;&gt;Virtual Machine Error</title>
<path fill="none" stroke="black" d="M127.39,-159.8C120.62,-147.95 111.29,-131.62 103.48,-117.96"/>
<polygon fill="black" stroke="black" points="106.37,-115.96 98.37,-109.01 100.29,-119.43 106.37,-115.96"/>
<text text-anchor="middle" x="145.58" y="-129.8" font-family="Times,serif" font-size="14.00">unchecked</text>
</g>
<!-- Checked Exceptions -->
<g id="node5" class="node">
<title>Checked Exceptions</title>
<ellipse fill="none" stroke="black" cx="277.65" cy="-91" rx="82.6" ry="18"/>
<text text-anchor="middle" x="277.65" y="-86.8" font-family="Times,serif" font-size="14.00">Checked Exceptions</text>
</g>
<!-- Exception&#45;&gt;Checked Exceptions -->
<g id="edge4" class="edge">
<title>Exception&#45;&gt;Checked Exceptions</title>
<path fill="none" stroke="black" d="M277.65,-158.6C277.65,-147.26 277.65,-132.23 277.65,-119.32"/>
<polygon fill="black" stroke="black" points="281.15,-119.1 277.65,-109.1 274.15,-119.1 281.15,-119.1"/>
</g>
<!-- Unchecked Exceptions -->
<g id="node6" class="node">
<title>Unchecked Exceptions</title>
<ellipse fill="none" stroke="black" cx="469.65" cy="-91" rx="91.27" ry="18"/>
<text text-anchor="middle" x="469.65" y="-86.8" font-family="Times,serif" font-size="14.00">Unchecked Exceptions</text>
</g>
<!-- Exception&#45;&gt;Unchecked Exceptions -->
<g id="edge5" class="edge">
<title>Exception&#45;&gt;Unchecked Exceptions</title>
<path fill="none" stroke="black" d="M307.23,-163.06C338.51,-149.37 388.26,-127.61 424.46,-111.77"/>
<polygon fill="black" stroke="black" points="426.06,-114.89 433.82,-107.68 423.26,-108.48 426.06,-114.89"/>
</g>
<!-- RuntimeException -->
<g id="node7" class="node">
<title>RuntimeException</title>
<ellipse fill="none" stroke="black" cx="469.65" cy="-18" rx="76.34" ry="18"/>
<text text-anchor="middle" x="469.65" y="-13.8" font-family="Times,serif" font-size="14.00">RuntimeException</text>
</g>
<!-- Unchecked Exceptions&#45;&gt;RuntimeException -->
<g id="edge6" class="edge">
<title>Unchecked Exceptions&#45;&gt;RuntimeException</title>
<path fill="none" stroke="black" d="M469.65,-72.81C469.65,-64.79 469.65,-55.05 469.65,-46.07"/>
<polygon fill="black" stroke="black" points="473.15,-46.03 469.65,-36.03 466.15,-46.03 473.15,-46.03"/>
</g>
</g>
</svg>
